# xmcd
#
# Track frame offsets: 
#        150
#        13012
#        26047
#        40997
#        51586
#        63158
#        74556
#        85263
#        103491
#        112059
#
# Disc length: 1694 seconds
#
# Revision: 0
# Processed by: cddbd v1.5.2PL0 Copyright (c) Steve Scherf et al.
# Submitted via: ExactAudioCopy v0.95b4
#
DISCID=94069c0a
DTITLE=Hope Street - I Saw The Lord In You
DYEAR=2003
DGENRE=Christian
TTITLE0=I Saw The Lord In You
TTITLE1=Lean On The Cross
TTITLE2=The Love Of Our Savior
TTITLE3=Keep On Walkin'
TTITLE4=On The Horizon
TTITLE5=One Bright Morning
TTITLE6=Lord Make Me A Mountain Climber
TTITLE7=God Provided A Lamb
TTITLE8=When I Move To Hallelujah Square
TTITLE9=How Great Is Our God
EXTD=
EXTT0=
EXTT1=
EXTT2=
EXTT3=
EXTT4=
EXTT5=
EXTT6=
EXTT7=
EXTT8=
EXTT9=
PLAYORDER=
